<svg width="36" height="36" preserveAspectRatio="xMinYMin meet" viewBox="0 0 200 200" xmlns="http://www.w3.org/2000/svg" version="1.0" fill-rule="evenodd" xmlns:xlink="http://www.w3.org/1999/xlink"><title>...</title><desc>...</desc><g id="group" transform="scale(1,-1) translate(0,-200)" clip="0 0 200 200"><g transform=""><g transform=" matrix(1.111105,0,0,-1.212121,-11.109938,221.212121)"><g transform=""><g transform=""><path d="M 58.065 135.421 L 72.715 182.5 L 95.094 175.479 L 82.602 135.422 L 58.065 135.422 Z M 95.911 49.006 L 49.815 49.006 C 27.12 49.006 8.806 67.612 10.06 90.308 C 11.197 110.877 28.239 127.32 49.05 127.32 L 95.901 127.32 C 100.219 127.32 103.72 123.814 103.72 119.489 L 103.72 56.829 C 103.631 52.512 100.13 49.006 95.911 49.006 Z M 182.181 17.5 C 177.867 17.5 174.362 21.011 174.362 25.331 C 174.362 25.331 153.511 53.146 111.81 56.387 L 111.81 119.759 C 153.511 123 174.362 150.815 174.362 150.815 C 174.362 155.136 177.867 158.646 182.181 158.646 C 186.495 158.646 190 155.135 190 150.815 L 190 25.331 C 190 21.011 186.495 17.5 182.181 17.5 Z " style="stroke: none; stroke-linecap: butt; stroke-width: 1; fill: rgb(36%,75%,40%); fill-rule: evenodd;"/></g></g></g></g></g></svg>