<svg width="120" height="120" preserveAspectRatio="xMinYMin meet" viewBox="0 0 200 200" xmlns="http://www.w3.org/2000/svg" version="1.0" fill-rule="evenodd" xmlns:xlink="http://www.w3.org/1999/xlink"><title>...</title><desc>...</desc><g id="group" transform="scale(1,-1) translate(0,-200)" clip="0 0 200 200"><g transform=""><g transform=" matrix(1.149438,0,0,-1.960765,-15.731215,282.205076)"><g transform=""><g transform=""><path d="M 180.566 49.041 C 171.075 39.553 155.687 39.553 146.197 49.041 L 141.675 53.562 L 137.153 49.041 C 127.662 39.553 112.275 39.553 102.784 49.041 C 102.033148 49.7951 101.332009 50.597118 100.685 51.442 C 107.368 60.136 107.368 72.306 100.685 81 C 101.325 81.833 102.021 82.638 102.784 83.401 L 107.306 87.922 L 110.109 90.724 C 116.531 89.818 121.235 88.767 125.386 87.163 C 127.387 86.393 127.78 86.192 128.552 88.192 C 129.325 90.191 129.365 91.534 127.365 92.307 C 124.037 93.593 120.12 94.982 115.492 95.947 L 117.575 98.187 C 108.88 100.42 97.163 101.691 82.25 99.732 C 82.057 99.707 82.419 99.408 82.225 99.381 C 77.701 98.765 72.583 97.719 67.471 96.447 C 65.388 95.932 62.527 97.717 62.009 99.797 C 61.491 101.877 63.174 104.317 65.254 104.835 C 68.719 105.697 71.951 106.515 75.157 106.759 C 75.19 106.761 75.421 106.523 75.454 106.525 C 83.273 107.104 90.21 108.458 96.537 108.458 C 107.829 108.458 116.909 106.673 123.844 104.453 L 126.058 106.667 L 126.058 136.16 L 120.888 136.16 C 119.480449 136.128045 118.165925 136.860691 117.452763 138.074619 C 116.739602 139.288547 116.739602 140.793453 117.452763 142.007381 C 118.165925 143.221309 119.480449 143.953955 120.888 143.922 L 133.822 143.922 L 133.822 114.429 L 141.675 122.28 L 148.875 115.082 L 148.875 125.067 L 167.557 125.067 L 167.557 130.236 C 167.557 132.379969 169.295031 134.118 171.439 134.118 C 173.582969 134.118 175.321 132.379969 175.321 130.236 L 175.321 117.305 L 156.639 117.305 L 156.639 107.32 L 176.044 87.92 L 180.566 83.399 C 190.057 73.913 190.057 58.53 180.566 49.041 Z " style="stroke: none; stroke-linecap: butt; stroke-width: 1; fill: rgb(86%,19%,6%); fill-rule: evenodd;"/></g><g transform=""><path d="M 130.036 87.989 C 129.262429 85.990059 127.015792 84.995631 125.016 85.767 C 120.865 87.371 115.598 88.887 109.177 89.792 C 104.026 90.518 98.125 90.847 91.467 90.518 L 94.064 87.922 L 98.586 83.401 C 99.336852 82.6469 100.037991 81.844882 100.685 81 C 107.368 72.306 107.368 60.135 100.685 51.442 C 100.037991 50.597118 99.336852 49.7951 98.586 49.041 C 89.095 39.553 73.708 39.553 64.217 49.041 L 59.695 53.562 L 55.173 49.041 C 45.682 39.553 30.295 39.553 20.804 49.041 C 11.313 58.529 11.313 73.913 20.804 83.401 L 25.326 87.922 L 44.392 106.983 L 44.392 117.307 L 25.708 117.307 L 25.708 130.238 C 25.708 132.381969 27.446031 134.12 29.59 134.12 C 31.733969 134.12 33.472 132.381969 33.472 130.238 L 33.472 125.069 L 52.155 125.069 L 52.155 114.745 L 59.694 122.282 L 67.207 114.771 L 67.207 143.925 L 80.142 143.925 C 81.549551 143.956955 82.864075 143.224309 83.577237 142.010381 C 84.290398 140.796453 84.290398 139.291547 83.577237 138.077619 C 82.864075 136.863691 81.549551 136.131045 80.142 136.163 L 74.971 136.163 L 74.971 107.009 L 75.453 106.527 C 72.059051 105.933487 68.686975 105.221048 65.343 104.391 C 63.978363 104.07334 62.890793 103.044969 62.49733 101.700228 C 62.103868 100.355486 62.465575 98.903067 63.443751 97.899915 C 64.421927 96.896763 65.864768 96.49856 67.219 96.858 C 72.55 98.185 77.556 99.117 82.249 99.734 L 84.26 97.724 C 88.602 98.187 92.705 98.409 96.537 98.409 C 103.925 98.409 110.362 97.642 115.877 96.493 C 120.505 95.528 124.486 94.295 127.814 93.009 C 129.813766 92.236293 130.808563 89.988821 130.036 87.989 Z " style="stroke: none; stroke-linecap: butt; stroke-width: 1; fill: rgb(98%,48%,48%); fill-rule: evenodd;"/></g><g transform=""><path d="M 70.912 76.33 C 70.912 78.756905 69.617262 80.999458 67.5155 82.212911 C 65.413738 83.426363 62.824261 83.426363 60.7225 82.212911 C 58.620738 80.999458 57.326 78.756905 57.326 76.33 C 57.326 72.57833 60.36733 69.537 64.119 69.537 C 67.87067 69.537 70.912 72.57833 70.912 76.33 Z " style="stroke: none; stroke-linecap: butt; stroke-width: 1; fill: rgb(0%,0%,0%); fill-rule: evenodd;"/></g><g transform=""><path d="M 76.167 72.177 C 74.624734 72.181029 73.144887 71.568207 72.057 70.475 C 71.657 70.076 71.317 69.599 71.018 69.02 C 70.841349 68.676704 70.80838 68.277274 70.926354 67.90966 C 71.044328 67.542047 71.303571 67.236393 71.647 67.06 C 72.362127 66.69427 73.238368 66.974882 73.608 67.688 C 73.768 68 73.929 68.231 74.115 68.416 C 75.213 69.515 77.122 69.513 78.218 68.418 C 78.42488 68.203068 78.596345 67.956672 78.726 67.688 C 79.108198 67.001021 79.966471 66.741119 80.665576 67.100659 C 81.36468 67.460198 81.652496 68.309517 81.316 69.02 C 81.048164 69.556816 80.697544 70.048156 80.277 70.476 C 79.188633 71.568369 77.709011 72.180737 76.167 72.177 Z " style="stroke: none; stroke-linecap: butt; stroke-width: 1; fill: rgb(0%,0%,6%); fill-rule: evenodd;"/></g><g transform=""><path d="M 91.812 72.177 C 90.269778 72.180807 88.790013 71.568018 87.702 70.475 C 87.282011 70.047291 86.931749 69.556317 86.664 69.02 C 86.487349 68.676704 86.45438 68.277274 86.572354 67.90966 C 86.690328 67.542047 86.949571 67.236393 87.293 67.06 C 88.008127 66.69427 88.884368 66.974882 89.254 67.688 C 89.414 68 89.575 68.231 89.762 68.417 C 90.859 69.514 92.768 69.513 93.863 68.418 C 94.06988 68.203068 94.241345 67.956672 94.371 67.688 C 94.74664 66.988263 95.613735 66.718636 96.319941 67.081968 C 97.026147 67.4453 97.310913 68.307541 96.96 69.02 C 96.692164 69.556816 96.341544 70.048156 95.921 70.476 C 94.833003 71.568311 93.353709 72.180693 91.812 72.177 Z " style="stroke: none; stroke-linecap: butt; stroke-width: 1; fill: rgb(0%,0%,6%); fill-rule: evenodd;"/></g><g transform=""><path d="M 149.109 76.33 C 149.109 80.08167 146.06767 83.123 142.316 83.123 C 138.56433 83.123 135.523 80.08167 135.523 76.33 C 135.523 72.57833 138.56433 69.537 142.316 69.537 C 146.06767 69.537 149.109 72.57833 149.109 76.33 Z " style="stroke: none; stroke-linecap: butt; stroke-width: 1; fill: rgb(0%,0%,0%); fill-rule: evenodd;"/></g><g transform=""><path d="M 130.268 72.177 C 128.726037 72.180985 127.246516 71.568149 126.159 70.475 C 125.759 70.076 125.419 69.599 125.12 69.02 C 124.943349 68.676704 124.91038 68.277274 125.028354 67.90966 C 125.146328 67.542047 125.405571 67.236393 125.749 67.06 C 126.464127 66.69427 127.340368 66.974882 127.71 67.688 C 127.87 68 128.031 68.231 128.218 68.417 C 129.315 69.514 131.225 69.513 132.319 68.418 C 132.507 68.231 132.668 68 132.828 67.688 C 133.210198 67.001021 134.068471 66.741119 134.767576 67.100659 C 135.46668 67.460198 135.754496 68.309517 135.418 69.02 C 135.149931 69.55748 134.798596 70.049213 134.377 70.477 C 133.288649 71.568661 131.809499 72.180624 130.268 72.177 Z " style="stroke: none; stroke-linecap: butt; stroke-width: 1; fill: rgb(0%,0%,6%); fill-rule: evenodd;"/></g><g transform=""><path d="M 114.623 72.177 C 113.080778 72.180807 111.601013 71.568018 110.513 70.475 C 110.113 70.076 109.773 69.599 109.475 69.02 C 109.298349 68.676704 109.26538 68.277274 109.383354 67.90966 C 109.501328 67.542047 109.760571 67.236393 110.104 67.06 C 110.819127 66.69427 111.695368 66.974882 112.065 67.688 C 112.225 68 112.386 68.231 112.572 68.417 C 113.669 69.514 115.578 69.513 116.673 68.418 C 116.87988 68.203068 117.051345 67.956672 117.181 67.688 C 117.563198 67.001021 118.421471 66.741119 119.120576 67.100659 C 119.81968 67.460198 120.107496 68.309517 119.771 69.02 C 119.503164 69.556816 119.152544 70.048156 118.732 70.476 C 117.644129 71.568499 116.164753 72.180915 114.623 72.177 Z " style="stroke: none; stroke-linecap: butt; stroke-width: 1; fill: rgb(0%,0%,6%); fill-rule: evenodd;"/></g><g transform=""><path d="M 120.831 78.498 C 121.177548 78.498 121.497771 78.313119 121.671045 78.013 C 121.844319 77.712881 121.844319 77.343119 121.671045 77.043 C 121.497771 76.742881 121.177548 76.558 120.831 76.558 C 120.18 76.558 119.651 76.028 119.651 75.378 C 119.651 74.728 120.18 74.198 120.831 74.198 C 121.177548 74.198 121.497771 74.013119 121.671045 73.713 C 121.844319 73.412881 121.844319 73.043119 121.671045 72.743 C 121.497771 72.442881 121.177548 72.258 120.831 72.258 C 119.108395 72.259653 117.712205 73.655395 117.71 75.378 C 117.710878 76.180242 118.022728 76.950904 118.58 77.528 C 118.022728 78.105096 117.710878 78.875758 117.71 79.678 C 117.71 81.399 119.11 82.799 120.831 82.799 C 121.177548 82.799 121.497771 82.614119 121.671045 82.314 C 121.844319 82.013881 121.844319 81.644119 121.671045 81.344 C 121.497771 81.043881 121.177548 80.859 120.831 80.859 C 120.202137 80.827288 119.708529 80.308163 119.708529 79.6785 C 119.708529 79.048837 120.202137 78.529712 120.831 78.498 Z " style="stroke: none; stroke-linecap: butt; stroke-width: 1; fill: rgb(69%,0%,0%); fill-rule: evenodd;"/></g><g transform=""><path d="M 88.725 75.377 C 88.725 73.656 87.325 72.257 85.604 72.257 C 85.257452 72.257 84.937229 72.441881 84.763955 72.742 C 84.590681 73.042119 84.590681 73.411881 84.763955 73.712 C 84.937229 74.012119 85.257452 74.197 85.604 74.197 C 86.255 74.197 86.784 74.727 86.784 75.377 C 86.784 76.027 86.255 76.557 85.604 76.557 C 85.257452 76.557 84.937229 76.741881 84.763955 77.042 C 84.590681 77.342119 84.590681 77.711881 84.763955 78.012 C 84.937229 78.312119 85.257452 78.497 85.604 78.497 C 86.232863 78.528712 86.726471 79.047837 86.726471 79.6775 C 86.726471 80.307163 86.232863 80.826288 85.604 80.858 C 85.257452 80.858 84.937229 81.042881 84.763955 81.343 C 84.590681 81.643119 84.590681 82.012881 84.763955 82.313 C 84.937229 82.613119 85.257452 82.798 85.604 82.798 C 87.325 82.798 88.725 81.398 88.725 79.677 C 88.724122 78.874758 88.412272 78.104096 87.855 77.527 C 88.412272 76.949904 88.724122 76.179242 88.725 75.377 Z " style="stroke: none; stroke-linecap: butt; stroke-width: 1; fill: rgb(86%,19%,6%); fill-rule: evenodd;"/></g></g></g></g></g></svg>