<svg xmlns="http://www.w3.org/2000/svg" width="200" height="200" aria-hidden="true" data-bbox="20 20 159.999 160.002" data-type="color" viewBox="20 20 159.999 160.002"><defs><style>#comp-kfmopuu8 svg [data-color=&quot;1&quot;]{fill:#008afc}</style></defs><path fill="#020619" d="M174.077 94.078c-2.554 0-4.729 1.628-5.558 3.899h-19.452a49.917 49.917 0 0 0-3.15-15.052l9.227-3.809a5.892 5.892 0 0 0 2.083 1.482 5.927 5.927 0 0 0 2.274.457 5.93 5.93 0 0 0 5.474-8.186 5.88 5.88 0 0 0-3.202-3.209 5.885 5.885 0 0 0-4.534-.005 5.884 5.884 0 0 0-3.208 3.202 5.883 5.883 0 0 0-.432 2.519l-9.263 3.824a50.422 50.422 0 0 0-8.289-12.384l13.844-13.843a5.922 5.922 0 0 0 2.489.569 5.904 5.904 0 0 0 4.188-1.731 5.883 5.883 0 0 0 1.735-4.188c0-1.582-.617-3.07-1.735-4.188-1.119-1.119-2.606-1.735-4.188-1.735s-3.069.616-4.188 1.734a5.883 5.883 0 0 0-1.735 4.188c0 .88.197 1.728.559 2.502L133.199 63.94a50.415 50.415 0 0 0-13.424-9.022l3.883-9.463c.077.003.154.011.23.011a5.933 5.933 0 0 0 5.487-3.675 5.93 5.93 0 0 0-3.231-7.728 5.934 5.934 0 0 0-7.728 3.232c-.969 2.363-.288 4.993 1.497 6.622l-3.878 9.452a50.017 50.017 0 0 0-17.145-3.015l-.081.002V31.482c2.271-.829 3.899-3.005 3.899-5.559A5.93 5.93 0 0 0 96.785 20a5.929 5.929 0 0 0-5.922 5.923c0 2.554 1.628 4.729 3.898 5.559v19.056a49.892 49.892 0 0 0-13.31 2.942l-3.973-9.331a5.881 5.881 0 0 0 1.458-2.099 5.879 5.879 0 0 0-.044-4.533 5.882 5.882 0 0 0-3.236-3.173 5.883 5.883 0 0 0-4.533.044 5.883 5.883 0 0 0-3.174 3.237 5.885 5.885 0 0 0 .044 4.532 5.884 5.884 0 0 0 3.236 3.174 5.895 5.895 0 0 0 2.213.432c.106 0 .211-.01.317-.016l3.96 9.301a50.374 50.374 0 0 0-11.975 7.837L52.97 50.108c1.015-2.191.641-4.872-1.163-6.676a5.883 5.883 0 0 0-4.188-1.735c-1.583 0-3.07.616-4.188 1.734a5.883 5.883 0 0 0-1.735 4.188c0 1.582.617 3.069 1.735 4.188a5.88 5.88 0 0 0 4.188 1.735 5.89 5.89 0 0 0 2.502-.559l12.694 12.694a50.426 50.426 0 0 0-9.314 13.391l-9.043-3.721c.097-2.415-1.295-4.748-3.656-5.72a5.93 5.93 0 0 0-7.732 3.223 5.931 5.931 0 0 0 3.224 7.731 5.898 5.898 0 0 0 2.246.446 5.941 5.941 0 0 0 4.371-1.939l9.003 3.705a49.93 49.93 0 0 0-3.203 15.185H31.482c-.83-2.271-3.005-3.899-5.559-3.899A5.927 5.927 0 0 0 20 100a5.929 5.929 0 0 0 5.923 5.922c2.554 0 4.73-1.628 5.559-3.899h17.199a49.973 49.973 0 0 0 2.861 15.372l-8.646 3.569a5.878 5.878 0 0 0-2.085-1.482 5.883 5.883 0 0 0-4.533-.005h-.001a5.88 5.88 0 0 0-3.208 3.202 5.883 5.883 0 0 0-.005 4.533 5.88 5.88 0 0 0 3.201 3.209 5.889 5.889 0 0 0 4.533.005 5.882 5.882 0 0 0 3.21-3.201 5.887 5.887 0 0 0 .432-2.52l8.617-3.557a50.388 50.388 0 0 0 9.174 13.76l-12.108 12.108a5.89 5.89 0 0 0-2.502-.559c-1.583 0-3.07.617-4.188 1.735h-.001a5.887 5.887 0 0 0-1.734 4.188 5.89 5.89 0 0 0 1.734 4.188 5.884 5.884 0 0 0 4.189 1.735 5.892 5.892 0 0 0 4.189-1.735c1.803-1.805 2.177-4.485 1.161-6.676l12.134-12.134a50.413 50.413 0 0 0 12.733 8.447l-3.459 8.43a5.88 5.88 0 0 0-2.518.437 5.885 5.885 0 0 0-3.194 3.215l-.001.001a5.879 5.879 0 0 0 .015 4.533 5.885 5.885 0 0 0 3.215 3.194 5.918 5.918 0 0 0 2.25.448c.774 0 1.547-.154 2.284-.461a5.889 5.889 0 0 0 3.195-3.216c.969-2.363.288-4.993-1.497-6.622l3.444-8.394a49.876 49.876 0 0 0 13.191 2.895v17.856c-2.27.829-3.898 3.004-3.898 5.558a5.929 5.929 0 0 0 5.922 5.923 5.93 5.93 0 0 0 5.923-5.923c0-2.554-1.628-4.729-3.899-5.558v-17.675l.081.002a49.964 49.964 0 0 0 18.069-3.374l3.601 8.459a5.888 5.888 0 0 0-1.459 2.1 5.886 5.886 0 0 0 .045 4.534 5.884 5.884 0 0 0 3.235 3.173 5.9 5.9 0 0 0 2.214.433c.787 0 1.572-.159 2.318-.476a5.883 5.883 0 0 0 3.174-3.237c.592-1.467.576-3.077-.043-4.533s-1.769-2.583-3.237-3.174a5.866 5.866 0 0 0-2.525-.405l-3.608-8.473a50.45 50.45 0 0 0 13.137-9.198l13.204 13.204a5.89 5.89 0 0 0-.559 2.502c0 1.582.617 3.069 1.735 4.188 1.119 1.119 2.606 1.735 4.188 1.735s3.069-.617 4.188-1.735a5.883 5.883 0 0 0 1.735-4.188 5.888 5.888 0 0 0-1.735-4.188 5.883 5.883 0 0 0-4.188-1.735 5.89 5.89 0 0 0-2.502.559l-13.272-13.272a50.378 50.378 0 0 0 8.14-12.646l8.843 3.639a5.885 5.885 0 0 0 .434 2.519 5.889 5.889 0 0 0 3.213 3.198 5.898 5.898 0 0 0 2.246.446 5.932 5.932 0 0 0 5.484-3.668 5.93 5.93 0 0 0-3.223-7.732 5.879 5.879 0 0 0-4.533.011 5.872 5.872 0 0 0-2.082 1.484l-8.873-3.651a49.949 49.949 0 0 0 2.843-15.319h19.419c.829 2.271 3.004 3.899 5.558 3.899a5.93 5.93 0 0 0 5.923-5.922 5.928 5.928 0 0 0-5.922-5.927z" data-color="1"/></svg>