<svg width="120" height="120" preserveAspectRatio="xMinYMin meet" viewBox="0 0 200 200" xmlns="http://www.w3.org/2000/svg" version="1.0" fill-rule="evenodd" xmlns:xlink="http://www.w3.org/1999/xlink"><title>...</title><desc>...</desc><g id="group" transform="scale(1,-1) translate(0,-200)" clip="0 0 200 200"><g transform=""><g transform=" matrix(1.598721,0,0,-1.212121,-59.952038,221.212121)"><g transform=""><g transform=""><path d="M 158.2 182.5 L 41.8 182.5 C 39.4 182.5 37.5 180.6 37.5 178.3 L 37.5 38.7 C 37.5 36.4 39.4 34.5 41.8 34.5 L 158.3 34.5 C 160.7 34.5 162.6 36.4 162.6 38.7 L 162.6 178.3 C 162.5 180.6 160.6 182.5 158.2 182.5 Z M 46 174 L 154 174 L 154 42.9 L 46 42.9 L 46 174 Z " style="stroke: none; stroke-linecap: butt; stroke-width: 1; fill: rgb(15%,31%,63%); fill-rule: evenodd;"/></g><g transform=""><path d="M 111.4 37.2 C 109 37.2 107.1 35.3 107.1 33 C 107.1 29.1 103.9 25.9 100 25.9 C 96.1 25.9 92.9 29.1 92.9 33 C 92.9 35.3 91 37.2 88.6 37.2 C 86.2 37.2 84.3 35.3 84.3 33 C 84.3 24.4 91.3 17.5 99.9 17.5 C 108.5 17.5 115.5 24.5 115.5 33 C 115.6 35.3 113.7 37.2 111.4 37.2 Z " style="stroke: none; stroke-linecap: butt; stroke-width: 1; fill: rgb(15%,31%,63%); fill-rule: evenodd;"/></g><g transform=""><path d="M 127.8 62.6 L 72.2 62.6 C 69.8 62.6 67.9 60.7 67.9 58.4 L 67.9 41.5 C 67.9 39.2 69.8 37.3 72.2 37.3 C 74.6 37.3 76.5 39.2 76.5 41.5 L 76.5 54.2 L 123.5 54.2 L 123.5 41.5 C 123.5 39.2 125.4 37.3 127.8 37.3 C 130.2 37.3 132.1 39.2 132.1 41.5 L 132.1 58.4 C 132 60.7 130.1 62.6 127.8 62.6 Z " style="stroke: none; stroke-linecap: butt; stroke-width: 1; fill: rgb(15%,31%,63%); fill-rule: evenodd;"/></g><g transform=""><path d="M 72.3 113.4 C 70.3 113.4 68.7 111.8 68.7 109.9 L 68.7 90.1 C 68.7 88.2 70.3 86.6 72.3 86.6 C 74.3 86.6 75.9 88.2 75.9 90.1 L 75.9 109.8 C 75.9 111.8 74.3 113.4 72.3 113.4 Z " style="stroke: none; stroke-linecap: butt; stroke-width: 1; fill: rgb(97%,45%,14%); fill-rule: evenodd;"/></g><g transform=""><path d="M 82.2 103.5 L 62.4 103.5 C 60.4 103.5 58.8 101.9 58.8 100 C 58.8 98.1 60.4 96.5 62.4 96.5 L 82.3 96.5 C 84.3 96.5 85.9 98.1 85.9 100 C 85.9 101.9 84.2 103.5 82.2 103.5 Z " style="stroke: none; stroke-linecap: butt; stroke-width: 1; fill: rgb(97%,45%,14%); fill-rule: evenodd;"/></g><g transform=""><path d="M 137.6 86.6 L 100.7 86.6 C 98.7 86.6 97.1 85 97.1 83.1 C 97.1 81.2 98.7 79.6 100.7 79.6 L 137.6 79.6 C 139.6 79.6 141.2 81.2 141.2 83.1 C 141.2 85 139.6 86.6 137.6 86.6 Z " style="stroke: none; stroke-linecap: butt; stroke-width: 1; fill: rgb(97%,45%,14%); fill-rule: evenodd;"/></g><g transform=""><path d="M 137.6 103.5 L 100.7 103.5 C 98.7 103.5 97.1 101.9 97.1 100 C 97.1 98.1 98.7 96.5 100.7 96.5 L 137.6 96.5 C 139.6 96.5 141.2 98.1 141.2 100 C 141.2 101.9 139.6 103.5 137.6 103.5 Z " style="stroke: none; stroke-linecap: butt; stroke-width: 1; fill: rgb(97%,45%,14%); fill-rule: evenodd;"/></g><g transform=""><path d="M 137.6 120.4 L 100.7 120.4 C 98.7 120.4 97.1 118.8 97.1 116.9 C 97.1 115 98.7 113.4 100.7 113.4 L 137.6 113.4 C 139.6 113.4 141.2 115 141.2 116.9 C 141.2 118.8 139.6 120.4 137.6 120.4 Z " style="stroke: none; stroke-linecap: butt; stroke-width: 1; fill: rgb(97%,45%,14%); fill-rule: evenodd;"/></g><g transform=""><path d="M 137.6 138.1 L 63.8 138.1 C 61.8 138.1 60.2 136.5 60.2 134.6 C 60.2 132.7 61.8 131.1 63.8 131.1 L 137.7 131.1 C 139.7 131.1 141.3 132.7 141.3 134.6 C 141.2 136.5 139.6 138.1 137.6 138.1 Z " style="stroke: none; stroke-linecap: butt; stroke-width: 1; fill: rgb(15%,31%,63%); fill-rule: evenodd;"/></g><g transform=""><path d="M 137.6 155 L 63.8 155 C 61.8 155 60.2 153.4 60.2 151.5 C 60.2 149.6 61.8 148 63.8 148 L 137.7 148 C 139.7 148 141.3 149.6 141.3 151.5 C 141.2 153.4 139.6 155 137.6 155 Z " style="stroke: none; stroke-linecap: butt; stroke-width: 1; fill: rgb(15%,31%,63%); fill-rule: evenodd;"/></g></g></g></g></g></svg>