<svg preserveAspectRatio="xMidYMid meet" data-bbox="13.686 41.925 173.998 102.001" viewBox="13.686 41.925 173.998 102.001" height="200" width="200" xmlns="http://www.w3.org/2000/svg" data-type="color" role="presentation" aria-hidden="true"><defs><style>#comp-kfxr2tll1 svg [data-color="4"] {fill: #008AFC;}</style></defs>
    <g>
        <path d="M180.566 49.041c-9.491-9.488-24.879-9.488-34.369 0l-4.522 4.521-4.522-4.521c-9.491-9.488-24.878-9.488-34.369 0a24.605 24.605 0 0 0-2.099 2.401c6.683 8.694 6.683 20.864 0 29.558.64.833 1.336 1.638 2.099 2.401l4.522 4.521 2.803 2.802c6.422-.906 11.126-1.957 15.277-3.561 2.001-.77 2.394-.971 3.166 1.029.773 1.999.813 3.342-1.187 4.115-3.328 1.286-7.245 2.675-11.873 3.64l2.083 2.24c-8.695 2.233-20.412 3.504-35.325 1.545-.193-.025.169-.324-.025-.351-4.524-.616-9.642-1.662-14.754-2.934-2.083-.515-4.944 1.27-5.462 3.35-.518 2.08 1.165 4.52 3.245 5.038 3.465.862 6.697 1.68 9.903 1.924.033.002.264-.236.297-.234 7.819.579 14.756 1.933 21.083 1.933 11.292 0 20.372-1.785 27.307-4.005l2.214 2.214v29.493h-5.17a3.882 3.882 0 1 0 0 7.762h12.934v-29.493l7.853 7.851 7.2-7.198v9.985h18.682v5.169a3.882 3.882 0 0 0 7.764 0v-12.931h-18.682v-9.985l19.405-19.4 4.522-4.521c9.491-9.486 9.491-24.869 0-34.358z" fill="#DD3111" data-color="1"></path>
        <path d="M130.036 87.989a3.884 3.884 0 0 0-5.02-2.222c-4.151 1.604-9.418 3.12-15.839 4.025-5.151.726-11.052 1.055-17.71.726l2.597-2.596 4.522-4.521A24.605 24.605 0 0 0 100.685 81c6.683-8.694 6.683-20.865 0-29.558a24.605 24.605 0 0 0-2.099-2.401c-9.491-9.488-24.878-9.488-34.369 0l-4.522 4.521-4.522-4.521c-9.491-9.488-24.878-9.488-34.369 0s-9.491 24.872 0 34.36l4.522 4.521 19.066 19.061v10.324H25.708v12.931a3.882 3.882 0 0 0 7.764 0v-5.169h18.683v-10.324l7.539 7.537 7.513-7.511v29.154h12.935a3.882 3.882 0 1 0 0-7.762h-5.171v-29.154l.482-.482a147.266 147.266 0 0 1-10.11-2.136 3.882 3.882 0 1 1 1.876-7.533c5.331 1.327 10.337 2.259 15.03 2.876l2.011-2.01c4.342.463 8.445.685 12.277.685 7.388 0 13.825-.767 19.34-1.916 4.628-.965 8.609-2.198 11.937-3.484a3.882 3.882 0 0 0 2.222-5.02z" fill="#FB7C7C" data-color="2"></path>
        <path d="M70.912 76.33a6.793 6.793 0 1 1-13.586 0 6.793 6.793 0 0 1 13.586 0z" opacity=".1"></path>
        <path d="M76.167 72.177a5.777 5.777 0 0 1-4.11-1.702c-.4-.399-.74-.876-1.039-1.455a1.455 1.455 0 0 1 .629-1.96 1.46 1.46 0 0 1 1.961.628c.16.312.321.543.507.728 1.098 1.099 3.007 1.097 4.103.002a2.82 2.82 0 0 0 .508-.73 1.457 1.457 0 0 1 2.59 1.332 5.72 5.72 0 0 1-1.039 1.456 5.782 5.782 0 0 1-4.11 1.701z" fill="#000010" data-color="3"></path>
        <path d="M91.812 72.177a5.779 5.779 0 0 1-4.11-1.702 5.729 5.729 0 0 1-1.038-1.455 1.455 1.455 0 0 1 .629-1.96 1.46 1.46 0 0 1 1.961.628c.16.312.321.543.508.729 1.097 1.097 3.006 1.096 4.101.001a2.82 2.82 0 0 0 .508-.73 1.456 1.456 0 0 1 2.589 1.332 5.72 5.72 0 0 1-1.039 1.456 5.78 5.78 0 0 1-4.109 1.701z" fill="#000010" data-color="3"></path>
        <path d="M149.109 76.33a6.793 6.793 0 1 1-13.586 0 6.793 6.793 0 0 1 13.586 0z" opacity=".1"></path>
        <path d="M130.268 72.177a5.775 5.775 0 0 1-4.109-1.702c-.4-.399-.74-.876-1.039-1.455a1.455 1.455 0 0 1 .629-1.96 1.46 1.46 0 0 1 1.961.628c.16.312.321.543.508.729 1.097 1.097 3.007 1.096 4.101.001.188-.187.349-.418.509-.73a1.457 1.457 0 0 1 2.59 1.332 5.7 5.7 0 0 1-1.041 1.457 5.783 5.783 0 0 1-4.109 1.7z" fill="#000010" data-color="3"></path>
        <path d="M114.623 72.177a5.779 5.779 0 0 1-4.11-1.702c-.4-.399-.74-.876-1.038-1.455a1.455 1.455 0 0 1 .629-1.96 1.46 1.46 0 0 1 1.961.628c.16.312.321.543.507.729 1.097 1.097 3.006 1.096 4.101.001a2.82 2.82 0 0 0 .508-.73 1.457 1.457 0 0 1 2.59 1.332 5.72 5.72 0 0 1-1.039 1.456 5.778 5.778 0 0 1-4.109 1.701z" fill="#000010" data-color="3"></path>
        <path d="M120.831 78.498a.97.97 0 1 0 0-1.94c-.651 0-1.18-.53-1.18-1.18 0-.65.529-1.18 1.18-1.18a.97.97 0 1 0 0-1.94 3.124 3.124 0 0 0-3.121 3.12 3.1 3.1 0 0 0 .87 2.15 3.1 3.1 0 0 0-.87 2.15c0 1.721 1.4 3.121 3.121 3.121a.97.97 0 1 0 0-1.94 1.182 1.182 0 0 1 0-2.361z" fill="#B00000" data-color="4"></path>
        <path d="M88.725 75.377c0-1.721-1.4-3.12-3.121-3.12a.97.97 0 1 0 0 1.94c.651 0 1.18.53 1.18 1.18 0 .65-.529 1.18-1.18 1.18a.97.97 0 1 0 0 1.94 1.182 1.182 0 0 1 0 2.361.97.97 0 1 0 0 1.94c1.721 0 3.121-1.4 3.121-3.121a3.1 3.1 0 0 0-.87-2.15 3.1 3.1 0 0 0 .87-2.15z" fill="#DD3111" data-color="1"></path>
    </g>
</svg>