<svg width="72" height="72" preserveAspectRatio="xMinYMin meet" viewBox="0 0 200 200" xmlns="http://www.w3.org/2000/svg" version="1.0" fill-rule="evenodd" xmlns:xlink="http://www.w3.org/1999/xlink"><title>...</title><desc>...</desc><g id="group" transform="scale(1,-1) translate(0,-200)" clip="0 0 200 200"><g transform=""><g transform=" matrix(1.250008,0,0,-1.249984,-25.000156,224.999688)"><g transform=""><path d="M 174.077 94.078 C 171.523 94.078 169.348 95.706 168.519 97.977 L 149.067 97.977 C 148.800795 92.827078 147.738188 87.749504 145.917 82.925 L 155.144 79.116 C 155.721507 79.75649 156.432575 80.262396 157.227 80.598 C 157.947505 80.898612 158.7203 81.053918 159.501 81.055 C 161.477177 81.051635 163.321822 80.064061 164.420324 78.421326 C 165.518825 76.77859 165.726818 74.696582 164.975 72.869 C 164.37948 71.414354 163.226342 70.258696 161.773 69.66 C 160.322993 69.052842 158.690343 69.051042 157.239 69.655 C 155.784984 70.25112 154.629841 71.404102 154.031 72.857 C 153.704146 73.654864 153.556667 74.514821 153.599 75.376 L 144.336 79.2 C 142.201626 74.684234 139.408124 70.510664 136.047 66.816 L 149.891 52.973 C 150.669424 53.341389 151.51883 53.535568 152.38 53.542 C 153.950678 53.545052 155.457831 52.92211 156.568 51.811 C 157.682554 50.702812 158.307326 49.194716 158.303 47.623 C 158.303 46.041 157.686 44.553 156.568 43.435 C 155.449 42.316 153.962 41.7 152.38 41.7 C 150.798 41.7 149.311 42.316 148.192 43.434 C 147.077446 44.542188 146.452674 46.050284 146.457 47.622 C 146.457 48.502 146.654 49.35 147.016 50.124 L 133.199 63.94 C 129.239042 60.22981 124.706053 57.183279 119.775 54.918 L 123.658 45.455 C 123.735 45.458 123.812 45.466 123.888 45.466 C 126.292757 45.466194 128.45979 44.014791 129.375 41.791 C 130.612574 38.764771 129.167256 35.307818 126.144 34.063 C 123.117505 32.827918 119.662114 34.27303 118.416 37.295 C 117.447 39.658 118.128 42.288 119.913 43.917 L 116.035 53.369 C 110.540172 51.369547 104.737301 50.349094 98.89 50.354 L 98.809 50.356 L 98.809 31.482 C 101.08 30.653 102.708 28.477 102.708 25.923 C 102.704143 22.653416 100.054584 20.003857 96.785 20 C 93.515579 20.003858 90.866306 22.653578 90.863 25.923 C 90.863 28.477 92.491 30.652 94.761 31.482 L 94.761 50.538 C 90.21063 50.905111 85.732175 51.895014 81.451 53.48 L 77.478 44.149 C 78.111988 43.564669 78.60974 42.848084 78.936 42.05 C 79.527903 40.593874 79.512056 38.961362 78.892 37.517 C 78.280456 36.069555 77.115187 34.926972 75.656 34.344 C 74.199789 33.752545 72.567456 33.768389 71.123 34.388 C 69.675048 34.999652 68.532079 36.165307 67.949 37.625 C 67.358047 39.080961 67.37389 40.712787 67.993 42.157 C 68.604513 43.604696 69.769747 44.747604 71.229 45.331 C 71.932 45.616047 72.683409 45.76273 73.442 45.763 C 73.548 45.763 73.653 45.753 73.759 45.747 L 77.719 55.048 C 73.374696 57.077104 69.342344 59.716064 65.744 62.885 L 52.97 50.108 C 53.985 47.917 53.611 45.236 51.807 43.432 C 50.698812 42.317446 49.190716 41.692674 47.619 41.697 C 46.036 41.697 44.549 42.313 43.431 43.431 C 42.316446 44.539188 41.691674 46.047284 41.696 47.619 C 41.696 49.201 42.313 50.688 43.431 51.807 C 44.538997 52.921837 46.047218 53.546661 47.619 53.542 C 48.483927 53.541632 49.33816 53.350778 50.121 52.983 L 62.815 65.677 C 59.004177 69.605616 55.858362 74.128442 53.501 79.068 L 44.458 75.347 C 44.555 72.932 43.163 70.599 40.802 69.627 C 37.77687 68.385856 34.317947 69.827671 33.07 72.85 C 31.83023 75.875127 33.27225 79.333023 36.294 80.581 C 37.006341 80.874967 37.769386 81.026489 38.54 81.027 C 40.204275 81.021434 41.789907 80.318038 42.911 79.088 L 51.914 82.793 C 50.061423 87.656791 48.980705 92.780331 48.711 97.978 L 31.482 97.978 C 30.652 95.707 28.477 94.079 25.923 94.079 C 22.653512 94.081205 20.003309 96.730513 20 100 C 20.003858 103.269421 22.653578 105.918694 25.923 105.922 C 28.477 105.922 30.653 104.294 31.482 102.023 L 48.681 102.023 C 48.822173 107.265378 49.787655 112.452862 51.542 117.395 L 42.896 120.964 C 42.318222 120.322928 41.606368 119.816948 40.811 119.482 C 39.361329 118.874898 37.729007 118.873097 36.278 119.477 L 36.277 119.477 C 34.822732 120.072741 33.667463 121.225849 33.069 122.679 C 32.461898 124.128671 32.460097 125.760993 33.064 127.212 C 33.659287 128.666455 34.812036 129.822084 36.265 130.421 C 37.714806 131.027434 39.34686 131.029234 40.798 130.426 C 42.252707 129.830744 43.408662 128.67803 44.008 127.225 C 44.334872 126.426791 44.48235 125.566504 44.44 124.705 L 53.057 121.148 C 55.336298 126.208621 58.436039 130.857894 62.231 134.908 L 50.123 147.016 C 49.34016 146.648222 48.485927 146.457368 47.621 146.457 C 46.038 146.457 44.551 147.074 43.433 148.192 L 43.432 148.192 C 42.318191 149.300606 41.693855 150.808517 41.698 152.38 C 41.694189 153.951417 42.318474 155.459205 43.432 156.568 C 44.540495 157.682706 46.04896 158.307482 47.621 158.303 C 49.192864 158.306591 50.700999 157.681951 51.81 156.568 C 53.613 154.763 53.987 152.083 52.971 149.892 L 65.105 137.758 C 68.895489 141.204272 73.18913 144.05265 77.838 146.205 L 74.379 154.635 C 73.517779 154.594298 72.658144 154.743488 71.861 155.072 C 70.409847 155.674327 69.259805 156.831931 68.667 158.287 L 68.666 158.288 C 68.064847 159.740254 68.070249 161.372756 68.681 162.821 C 69.283327 164.272153 70.440931 165.422195 71.896 166.015 C 72.609598 166.309668 73.373958 166.46186 74.146 166.463 C 74.92 166.463 75.693 166.309 76.43 166.002 C 77.88147 165.399282 79.031804 164.241387 79.625 162.786 C 80.594 160.423 79.913 157.793 78.128 156.164 L 81.572 147.77 C 85.817414 149.328579 90.255084 150.302505 94.763 150.665 L 94.763 168.521 C 92.493 169.35 90.865 171.525 90.865 174.079 C 90.868306 177.348422 93.517579 179.998142 96.787 180.002 C 100.056584 179.998143 102.706143 177.348584 102.71 174.079 C 102.71 171.525 101.082 169.35 98.811 168.521 L 98.811 150.846 L 98.892 150.848 C 105.071829 150.850449 111.198487 149.706427 116.961 147.474 L 120.562 155.933 C 119.927703 156.517669 119.429625 157.234573 119.103 158.033 C 118.51192 159.4897 118.528124 161.122318 119.148 162.567 C 119.759499 164.014125 120.924314 165.156615 122.383 165.74 C 123.08628 166.025395 123.838019 166.172416 124.597 166.173 C 125.384 166.173 126.169 166.014 126.915 165.697 C 128.362952 165.085348 129.505921 163.919693 130.089 162.46 C 130.681 160.993 130.665 159.383 130.046 157.927 C 129.427 156.471 128.277 155.344 126.809 154.753 C 126.00736 154.433949 125.145209 154.295663 124.284 154.348 L 120.676 145.875 C 125.517414 143.529058 129.952434 140.423835 133.813 136.677 L 147.017 149.881 C 146.649222 150.66384 146.458368 151.518073 146.458 152.383 C 146.458 153.965 147.075 155.452 148.193 156.571 C 149.312 157.69 150.799 158.306 152.381 158.306 C 153.963 158.306 155.45 157.689 156.569 156.571 C 157.683554 155.462812 158.308326 153.954716 158.304 152.383 C 158.307769 150.811394 157.683082 149.303504 156.569 148.195 C 155.460812 147.080446 153.952716 146.455674 152.381 146.46 C 151.516073 146.460368 150.66184 146.651222 149.879 147.019 L 136.607 133.747 C 139.937794 129.962697 142.681695 125.699875 144.747 121.101 L 153.59 124.74 C 153.548365 125.601323 153.696526 126.461271 154.024 127.259 C 154.625359 128.711029 155.782173 129.862442 157.237 130.457 C 157.949341 130.750967 158.712386 130.902489 159.483 130.903 C 161.88504 130.903418 164.05024 129.455214 164.967 127.235 C 166.208144 124.20987 164.766329 120.750947 161.744 119.503 C 160.29228 118.900569 158.659779 118.90453 157.211 119.514 C 156.416424 119.849739 155.705576 120.356415 155.129 120.998 L 146.256 117.347 C 147.999144 112.420816 148.958479 107.25161 149.099 102.028 L 168.518 102.028 C 169.347 104.299 171.522 105.927 174.076 105.927 C 177.345194 105.923144 179.994592 103.274193 179.999 100.005 C 179.99845 96.733788 177.34821 94.081311 174.077 94.078 Z " style="stroke: none; stroke-linecap: butt; stroke-width: 1; fill: rgb(0%,2%,9%); fill-rule: evenodd;"/></g></g></g></g></svg>