<svg width="36" height="36" preserveAspectRatio="xMinYMin meet" viewBox="0 0 200 200" xmlns="http://www.w3.org/2000/svg" version="1.0" fill-rule="evenodd" xmlns:xlink="http://www.w3.org/1999/xlink"><title>...</title><desc>...</desc><g id="group" transform="scale(1,-1) translate(0,-200)" clip="0 0 200 200"><g transform=""><g transform=" matrix(1.437815,0,0,-1.709402,-43.997124,267.863248)"><g transform=""><g transform=""><path d="M 58.7 39.7 L 50.4 39.7 C 39.5 39.7 30.6 48.6 30.6 59.5 L 30.6 95.7 L 78.5 95.7 L 78.5 59.6 C 78.5 48.6 69.6 39.8 58.7 39.7 Z M 69.6 65.7 C 68.7 66.1 67.7 65.9 67 65.2 C 66.6 64.8 66.3 64.2 66.3 63.6 C 66.3 60.6 64.8 57.8 62.4 56.1 C 61 55.1 59.4 54.4 57.6 54.3 C 56.9 54.3 56.2 54.2 55.5 53.8 C 54.6 53.2 54.3 52.2 54.5 51.2 C 54.8 50.1 55.8 49.4 56.9 49.5 C 64.4 49.6 70.4 55.5 70.8 62.9 C 71 64.4 70.6 65.2 69.6 65.7 Z " style="stroke: none; stroke-linecap: butt; stroke-width: 1; fill: rgb(13%,53%,90%); fill-rule: evenodd;"/></g><g transform=""><path d="M 128.9 66.3 C 106.4 66.4 88.2 84.6 88.1 107.1 C 88.2 129.6 106.4 147.8 128.9 147.9 C 151.4 147.8 169.6 129.6 169.7 107.1 C 169.6 84.6 151.4 66.4 128.9 66.3 Z M 153.2 92.3 L 109.6 129.4 C 107.9 130.9 105.3 130.7 103.8 129 C 102.3 127.3 102.5 124.7 104.2 123.2 L 104.3 123.1 L 147.8 86 C 149.5 84.5 152.1 84.7 153.6 86.4 C 155.2 88.1 155 90.7 153.2 92.3 C 153.2 92.2 153.2 92.2 153.2 92.3 Z " style="stroke: none; stroke-linecap: butt; stroke-width: 1; fill: rgb(13%,53%,90%); fill-rule: evenodd;"/></g><g transform=""><path d="M 30.6 100.7 L 30.6 136.9 C 30.6 147.8 39.5 156.7 50.4 156.7 L 58.7 156.7 C 69.6 156.7 78.5 147.8 78.5 136.9 L 78.5 100.7 L 30.6 100.7 Z " style="stroke: none; stroke-linecap: butt; stroke-width: 1; fill: rgb(42%,81%,79%); fill-rule: evenodd;"/></g></g></g></g></g></svg>